HIERARCHY
ROOT Pelvis
{
	OFFSET 0.000000 0.000000 0.000000
	CHANNELS 6 Xposition Yposition Zposition Xrotation Yrotation Zrotation
	JOINT LeftUpLeg_virtual
	{
		OFFSET 0.000000 0.000000 0.000000
		CHANNELS 3 Xrotation Yrotation Zrotation
		JOINT LeftUpLeg
		{
			OFFSET 18.735201 -5.666702 -4.541200
			CHANNELS 3 Xrotation Yrotation Zrotation
			JOINT LeftLeg
			{
				OFFSET -0.021200 -31.938179 0.493100
				CHANNELS 3 Xrotation Yrotation Zrotation
				JOINT LeftFoot
				{
					OFFSET 0.021200 -31.938179 -4.336299
					CHANNELS 3 Xrotation Yrotation Zrotation
					JOINT LeftToeBase
					{
						OFFSET 0.943001 -26.722000 15.023500
						CHANNELS 3 Xrotation Yrotation Zrotation
						End Site
						{
							OFFSET 0 0 0
						}
					}
				}
			}
		}
	}
	JOINT RightUpLeg_virtual
	{
		OFFSET 0.000000 0.000000 0.000000
		CHANNELS 3 Xrotation Yrotation Zrotation
		JOINT RightUpLeg
		{
			OFFSET -18.735201 -5.666702 -4.541200
			CHANNELS 3 Xrotation Yrotation Zrotation
			JOINT RightLeg
			{
				OFFSET 0.018946 -31.938133 0.493100
				CHANNELS 3 Xrotation Yrotation Zrotation
				JOINT RightFoot
				{
					OFFSET -0.018946 -31.938126 -4.336299
					CHANNELS 3 Xrotation Yrotation Zrotation
					JOINT RightToeBase
					{
						OFFSET -0.943001 -26.722004 15.023500
						CHANNELS 3 Xrotation Yrotation Zrotation
						End Site
						{
							OFFSET 0 0 0
						}
					}
				}
			}
		}
	}
	JOINT Hips_virtual
	{
		OFFSET 0.000000 0.000000 0.000000
		CHANNELS 3 Xrotation Yrotation Zrotation
		JOINT Hips
		{
			OFFSET -0.000000 -0.000000 -0.000000
			CHANNELS 3 Xrotation Yrotation Zrotation
			JOINT Spine
			{
				OFFSET 0.000000 10.199997 -0.299500
				CHANNELS 3 Xrotation Yrotation Zrotation
				JOINT Spine1
				{
					OFFSET 0.000000 11.900002 -1.516600
					CHANNELS 3 Xrotation Yrotation Zrotation
					JOINT Spine2
					{
						OFFSET 0.000000 13.600006 -2.842500
						CHANNELS 3 Xrotation Yrotation Zrotation
						JOINT Neck_virtual
						{
							OFFSET 0.000000 0.000000 0.000000
							CHANNELS 3 Xrotation Yrotation Zrotation
							JOINT Neck
							{
								OFFSET 0.000000 9.624100 -2.890100
								CHANNELS 3 Xrotation Yrotation Zrotation
								JOINT Head
								{
									OFFSET 0.000000 14.068802 -1.351900
									CHANNELS 3 Xrotation Yrotation Zrotation
									End Site
									{
										OFFSET 0 0 0
									}
								}
							}
						}
						JOINT LeftShoulder_virtual
						{
							OFFSET 0.000000 0.000000 0.000000
							CHANNELS 3 Xrotation Yrotation Zrotation
							JOINT LeftShoulder
							{
								OFFSET 15.263000 10.923401 -0.547700
								CHANNELS 3 Xrotation Yrotation Zrotation
								JOINT LeftArm
								{
									OFFSET 25.438599 -2.830597 -13.032500
									CHANNELS 3 Xrotation Yrotation Zrotation
									JOINT LeftForeArm
									{
										OFFSET 29.960503 0.000000 0.000000
										CHANNELS 3 Xrotation Yrotation Zrotation
										JOINT LeftHand
										{
											OFFSET 27.849251 0.000000 0.000000
											CHANNELS 3 Xrotation Yrotation Zrotation
											End Site
											{
												OFFSET 0 0 0
											}
										}
									}
								}
							}
						}
						JOINT RightShoulder_virtual
						{
							OFFSET 0.000000 0.000000 0.000000
							CHANNELS 3 Xrotation Yrotation Zrotation
							JOINT RightShoulder
							{
								OFFSET -15.263000 10.923401 -0.547700
								CHANNELS 3 Xrotation Yrotation Zrotation
								JOINT RightArm
								{
									OFFSET -25.438599 -2.830597 -13.032500
									CHANNELS 3 Xrotation Yrotation Zrotation
									JOINT RightForeArm
									{
										OFFSET -29.960503 0.000000 0.000000
										CHANNELS 3 Xrotation Yrotation Zrotation
										JOINT RightHand
										{
											OFFSET -27.849251 0.000000 0.000000
											CHANNELS 3 Xrotation Yrotation Zrotation
											End Site
											{
												OFFSET 0 0 0
											}
										}
									}
								}
							}
						}
					}
				}
			}
		}
	}
}
MOTION
Frames: 11
Frame Time: 0.03333333
-0.961079 91.297523 2.085289 0.000000 0.000000 0.000000 0.207221 6.585134 5.884663 -12.112621 3.561360 1.300414 17.814778 5.740145 1.063894 -1.816494 2.675042 -7.017213 0.000000 0.000000 0.000000 0.067017 7.846311 5.580617 -15.892447 -12.232867 -14.174278 28.430719 -0.573538 -2.383188 -14.500485 -9.136050 10.704972 0.000000 0.000000 0.000000 -0.277707 7.159596 6.260121 0.072122 0.730719 -1.036580 8.380570 -1.080746 6.652635 2.311216 -0.067053 1.386644 0.000000 0.000000 0.000000 1.695541 -0.035337 1.406683 0.483710 -0.050667 1.521852 0.000000 0.000000 0.000000 1.913284 0.125008 1.168491 0.845010 -5.635361 -11.563561 3.647081 -9.152385 -42.625459 0.540608 -62.059884 0.145920 0.000000 0.000000 0.000000 1.802511 0.169661 1.273739 1.407762 18.436632 12.252379 -21.343260 16.117720 60.975633 -135.085624 88.809910 135.287674 0.000000 0.000000 0.000000 
-0.976946 91.271187 2.197468 0.000000 0.000000 0.000000 0.224529 6.283547 5.878770 -12.005552 3.698736 1.268067 17.875170 5.966038 1.057876 -2.040471 2.750281 -6.928577 0.000000 0.000000 0.000000 0.103116 7.549055 5.566695 -15.705713 -11.581381 -13.950405 28.438789 -0.998668 -2.395530 -14.423124 -9.192110 10.927500 0.000000 0.000000 0.000000 -0.245164 6.925096 6.248610 0.065410 0.721911 -1.047847 8.400680 -1.351971 6.628782 2.282633 -0.093384 1.385696 0.000000 0.000000 0.000000 1.755008 -0.058836 1.415778 0.568904 -0.058127 1.470002 0.000000 0.000000 0.000000 1.884530 0.102141 1.168092 0.845700 -5.650640 -11.552967 4.039102 -9.117404 -42.647018 0.267135 -62.260733 0.012303 0.000000 0.000000 0.000000 1.761766 0.150631 1.304930 1.463498 19.053725 12.529138 -15.566643 18.590597 60.424477 -169.583256 84.848776 169.708604 0.000000 0.000000 0.000000 
-0.956860 91.252090 2.289127 0.000000 0.000000 0.000000 0.238230 5.986585 5.850325 -11.842204 3.876617 1.217020 17.877496 6.208030 1.030472 -2.338794 2.814328 -6.845442 0.000000 0.000000 0.000000 0.120415 7.261341 5.517773 -15.509239 -10.920902 -13.723645 28.414306 -1.422852 -2.408368 -14.279768 -9.263423 11.153266 0.000000 0.000000 0.000000 -0.233764 6.680537 6.198689 0.043953 0.719350 -1.062095 8.430061 -1.627250 6.587881 2.253105 -0.157120 1.382860 0.000000 0.000000 0.000000 1.805913 -0.121254 1.415574 0.639011 -0.070961 1.417498 0.000000 0.000000 0.000000 1.857652 0.043938 1.161543 0.856698 -5.725136 -11.483660 4.447849 -9.248324 -42.669780 -0.049026 -62.388498 -0.151519 0.000000 0.000000 0.000000 1.725250 0.096957 1.326115 1.534122 19.681170 12.667866 -10.075582 22.017485 59.279178 -173.231971 81.575681 173.265275 0.000000 0.000000 0.000000 
-0.904775 91.240784 2.364128 0.000000 0.000000 0.000000 0.224536 5.685942 5.802346 -11.604978 4.070861 1.152055 17.835202 6.463350 0.991333 -2.696237 2.867467 -6.756086 0.000000 0.000000 0.000000 0.094623 6.971301 5.439474 -15.274760 -10.252494 -13.488558 28.336744 -1.820938 -2.424301 -14.086170 -9.341560 11.386700 0.000000 0.000000 0.000000 -0.267145 6.395543 6.120467 0.017048 0.727003 -1.063670 8.469135 -1.884584 6.518596 2.219916 -0.242862 1.374773 0.000000 0.000000 0.000000 1.834430 -0.209371 1.401365 0.688483 -0.090462 1.369970 0.000000 0.000000 0.000000 1.831368 -0.034463 1.143658 0.883396 -5.847068 -11.327651 4.829154 -9.502994 -42.708913 -0.397709 -62.473418 -0.339485 0.000000 0.000000 0.000000 1.700771 0.028840 1.327293 1.640819 20.347847 12.581558 -4.852155 26.362080 57.156065 -174.508287 79.244019 174.446638 0.000000 0.000000 0.000000 
-0.832433 91.236839 2.419548 0.000000 0.000000 0.000000 0.162080 5.333616 5.739662 -11.289905 4.256840 1.083182 17.784964 6.729370 0.951370 -3.086688 2.912971 -6.650559 0.000000 0.000000 0.000000 0.014434 6.631495 5.347033 -14.991753 -9.571060 -13.251329 28.178044 -2.152400 -2.448035 -13.834280 -9.402895 11.656608 0.000000 0.000000 0.000000 -0.360360 6.021743 6.032056 0.001728 0.767982 -1.061588 8.520407 -2.095254 6.402569 2.191095 -0.334818 1.357191 0.000000 0.000000 0.000000 1.830558 -0.295825 1.371806 0.717316 -0.115140 1.330929 0.000000 0.000000 0.000000 1.794982 -0.109113 1.111342 0.934340 -5.995593 -11.046384 5.122485 -9.802070 -42.779015 -0.731320 -62.555565 -0.518211 0.000000 0.000000 0.000000 1.680989 -0.035548 1.304845 1.764564 21.088105 12.277106 0.189165 31.367828 53.758899 -174.884125 77.985905 174.786795 0.000000 0.000000 0.000000 
-0.748724 91.235901 2.460907 0.000000 0.000000 0.000000 0.048532 4.872844 5.665976 -10.894030 4.436340 1.027471 17.748250 7.002578 0.916206 -3.492121 2.949297 -6.533937 0.000000 0.000000 0.000000 -0.117994 6.189366 5.248541 -14.682972 -8.871846 -13.020133 27.953645 -2.391542 -2.470834 -13.516781 -9.429594 11.975358 0.000000 0.000000 0.000000 -0.505814 5.522191 5.940038 -0.024514 0.811862 -1.046038 8.572609 -2.231015 6.222595 2.163312 -0.407686 1.324997 0.000000 0.000000 0.000000 1.807842 -0.356651 1.329305 0.732874 -0.142251 1.301131 0.000000 0.000000 0.000000 1.742266 -0.156250 1.065047 1.003620 -6.160776 -10.651556 5.295234 -10.103306 -42.890774 -1.018967 -62.687353 -0.665152 0.000000 0.000000 0.000000 1.659584 -0.080243 1.256461 1.896351 21.924837 11.823915 5.189127 36.661112 48.957905 -174.700188 77.815403 174.620739 0.000000 0.000000 0.000000 
-0.656973 91.241684 2.483658 0.000000 0.000000 0.000000 -0.112545 4.279654 5.577389 -10.419485 4.626785 0.997790 17.712817 7.292163 0.882358 -3.887847 2.982552 -6.422201 0.000000 0.000000 0.000000 -0.292263 5.603920 5.142528 -14.385316 -8.166028 -12.804150 27.683674 -2.532737 -2.481807 -13.112684 -9.417473 12.319114 0.000000 0.000000 0.000000 -0.693838 4.868265 5.831409 -0.023990 0.849961 -1.034279 8.621921 -2.277435 5.959857 2.139039 -0.454492 1.275060 0.000000 0.000000 0.000000 1.778254 -0.381376 1.272950 0.743788 -0.168889 1.277138 0.000000 0.000000 0.000000 1.672543 -0.170073 1.008339 1.081539 -6.351100 -10.175556 5.351484 -10.370585 -43.048736 -1.222963 -62.891207 -0.751706 0.000000 0.000000 0.000000 1.634311 -0.086117 1.184640 2.005459 22.903187 11.386299 10.262786 41.886268 42.845637 -174.041608 78.663671 173.996433 0.000000 0.000000 0.000000 
-0.563216 91.258400 2.484749 0.000000 0.000000 0.000000 -0.300096 3.535046 5.460043 -9.885825 4.845091 0.996277 17.693257 7.603339 0.848669 -4.282936 3.020689 -6.326675 0.000000 0.000000 0.000000 -0.487748 4.865527 5.014393 -14.114711 -7.470941 -12.588959 27.365640 -2.582718 -2.477228 -12.626464 -9.376389 12.633238 0.000000 0.000000 0.000000 -0.897775 4.066028 5.688141 -0.011663 0.861148 -1.041185 8.660352 -2.229079 5.611274 2.110530 -0.473424 1.206908 0.000000 0.000000 0.000000 1.741098 -0.370447 1.202460 0.752464 -0.195116 1.254619 0.000000 0.000000 0.000000 1.586902 -0.152867 0.944392 1.156922 -6.560555 -9.666647 5.306552 -10.626746 -43.236696 -1.323498 -63.145092 -0.766747 0.000000 0.000000 0.000000 1.613726 -0.059193 1.095296 2.069897 24.023456 11.098752 15.555139 46.738964 35.650466 -172.799606 80.359512 172.802775 0.000000 0.000000 0.000000 
-0.463573 91.284401 2.475285 0.000000 0.000000 0.000000 -0.488441 2.669207 5.291733 -9.315278 5.085620 1.019463 17.700352 7.942349 0.824585 -4.719712 3.077897 -6.243189 0.000000 0.000000 0.000000 -0.681507 4.011151 4.838200 -13.863233 -6.800020 -12.350047 26.963867 -2.555647 -2.457192 -12.091658 -9.318401 12.885280 0.000000 0.000000 0.000000 -1.095194 3.148824 5.484097 -0.010124 0.838518 -1.043935 8.675086 -2.102448 5.190341 2.077273 -0.468756 1.125864 0.000000 0.000000 0.000000 1.697779 -0.336916 1.119615 0.763460 -0.220943 1.231379 0.000000 0.000000 0.000000 1.499074 -0.117120 0.879109 1.219389 -6.786352 -9.193646 5.228275 -10.913790 -43.423174 -1.319544 -63.399148 -0.712538 0.000000 0.000000 0.000000 1.609335 -0.007171 0.997159 2.088454 25.276107 11.035563 21.150287 51.019922 27.634889 -170.481276 82.713202 170.479514 0.000000 0.000000 0.000000 
-0.353051 91.313911 2.448269 0.000000 0.000000 0.000000 -0.663046 1.727958 5.053043 -8.759273 5.336321 1.070128 17.784020 8.301492 0.815329 -5.239512 3.168790 -6.164918 0.000000 0.000000 0.000000 -0.860174 3.076823 4.590971 -13.601307 -6.170358 -12.066414 26.431113 -2.458165 -2.427012 -11.529241 -9.246174 13.079028 0.000000 0.000000 0.000000 -1.276590 2.150803 5.202506 0.010406 0.826204 -1.036867 8.671060 -1.920108 4.727553 2.036995 -0.453472 1.038263 0.000000 0.000000 0.000000 1.635259 -0.299320 1.024946 0.774571 -0.245500 1.205841 0.000000 0.000000 0.000000 1.406435 -0.076767 0.812939 1.266767 -7.013429 -8.787900 5.143086 -11.250237 -43.566146 -1.214065 -63.606014 -0.596102 0.000000 0.000000 0.000000 1.626696 0.057043 0.896929 2.073645 26.567573 11.151932 27.123777 54.650857 18.977486 -164.884059 85.436186 164.826603 0.000000 0.000000 0.000000 
-0.235140 91.333954 2.412064 0.000000 0.000000 0.000000 -0.821630 0.755019 4.734198 -8.263227 5.589409 1.159700 17.997507 8.668377 0.824838 -5.888755 3.297490 -6.080971 0.000000 0.000000 0.000000 -1.022636 2.121639 4.265167 -13.308472 -5.584314 -11.726922 25.762454 -2.290087 -2.392671 -10.931604 -9.148229 13.256285 0.000000 0.000000 0.000000 -1.430321 1.125607 4.844034 0.007132 0.806929 -1.018984 8.639012 -1.711145 4.262464 1.995582 -0.436181 0.952157 0.000000 0.000000 0.000000 1.544372 -0.266380 0.924147 0.785526 -0.270415 1.180272 0.000000 0.000000 0.000000 1.315331 -0.041963 0.747305 1.297084 -7.217516 -8.474023 5.056754 -11.666599 -43.591992 -1.032343 -63.727215 -0.436627 0.000000 0.000000 0.000000 1.656328 0.115353 0.800541 2.054742 27.775567 11.304538 33.549387 57.530096 9.719370 -141.135327 88.101838 140.986292 0.000000 0.000000 0.000000 
